
<svg  xmlns="http://www.w3.org/2000/svg"  viewBox="0 0 256 256">
<path fill= 'white' d="M125.5,55.2c-27.7,0-50.2,22.5-50.2,50.2c0,21,41.9,85.4,50.2,85.4c8.2,0,50.2-64.7,50.2-85.4C175.7,77.7,153.2,55.2,125.5,55.2z M125.5,130.5c-13.9,0-25.1-11.2-25.1-25.1s11.2-25.1,25.1-25.1c13.9,0,25.1,11.2,25.1,25.1C150.6,119.3,139.4,130.5,125.5,130.5z M125.5,90.3c-8.3,0-15.1,6.7-15.1,15.1c0,8.3,6.7,15.1,15.1,15.1c8.3,0,15.1-6.7,15.1-15.1C140.6,97.1,133.8,90.3,125.5,90.3z M215.9,10H40.1C23.5,10,10,23.5,10,40.1v175.7c0,16.6,13.5,30.1,30.1,30.1h175.7c16.6,0,30.1-13.5,30.1-30.1V40.1C246,23.5,232.5,10,215.9,10z M125.5,205.8c-10,0-60.3-75.2-60.3-100.4c0-33.3,27-60.3,60.3-60.3s60.3,27,60.3,60.3C185.7,130.3,135.3,205.9,125.5,205.8z"/>
</svg>