<svg viewBox="0 0 512 512" xmlns="http://www.w3.org/2000/svg"><path fill= 'white' d="m231.433 283.42-104.981-79.167 119.323-82.796c6.667-4.628 14.014-4.627 20.686.001l116.049 80.513-101.912 81.449zm.631 24-95.021 86.58h238.135l-95.021-86.58zm-113.939-79.386.091 150.651 90.425-82.392zm275.875 150.647v-155.17l-90.723 72.506zm118-300.288v355.215c0 43.225-35.167 78.392-78.393 78.392h-355.214c-43.226 0-78.393-35.167-78.393-78.393v-355.214c0-43.226 35.167-78.393 78.393-78.393h355.215c43.225 0 78.392 35.167 78.392 78.393zm-94 125.271c0-3.934-1.928-7.617-5.16-9.859l-132.699-92.065c-14.822-10.282-33.233-10.282-48.05.001l-132.822 92.162c-3.233 2.244-5.161 5.93-5.159 9.866l.11 181.219c0 18.203 14.354 33.012 31.997 33.012h259.787c17.642 0 31.996-14.809 31.996-33.012z"></path></svg>