<svg viewBox="0 0 512 512" xmlns="http://www.w3.org/2000/svg"><path fill="white" d="M323.89 310.055c-34.78 19.252-78.72 13.044-106.855-15.09-28.132-28.131-34.347-72.075-15.113-106.861l5.827-10.54L74.125 43.94 54.627 63.37C19.4 98.595 0 145.611 0 195.756c0 50.144 19.4 97.168 54.627 132.41l129.206 129.206C219.06 492.6 266.08 512 316.232 512s97.172-19.4 132.418-54.646l19.41-19.477-133.627-133.66zM206.46 434.745L77.258 305.541c-59.463-59.488-60.496-155.616-3.123-216.335l94.418 94.418c-8.529 20.043-11.617 42.388-8.715 64.102 3.563 26.655 15.516 50.815 34.569 69.867 19.055 19.056 43.215 31.008 69.87 34.566 21.717 2.9 44.06-.196 64.102-8.735l94.416 94.439c-60.75 57.394-156.862 56.353-216.334-3.118zm172.402-183.221c14.915-33.671 7.444-73.771-18.592-99.785-26.038-26.037-66.14-33.51-99.795-18.602l-12.96-29.259c22.225-9.846 46.666-12.798 70.682-8.537 24.598 4.363 46.97 16.04 64.695 33.766 17.724 17.706 29.401 40.076 33.766 64.685 4.261 24.02 1.308 48.466-8.538 70.693zM512 215.285c0 15.5-1.662 30.995-4.999 46.158l-31.253-6.877a184.704 184.704 0 004.334-39.673c.01-47.999-18.86-94.393-53.714-129.267-44.438-44.412-107.592-62.868-168.934-49.374L250.557 5c34.815-7.662 71.375-6.498 105.726 3.365 34.925 10.028 66.984 28.92 92.713 54.633a.042.042 0 00.006.007c25.714 25.73 44.606 57.788 54.633 92.713A216.1 216.1 0 01512 215.285z"/></svg>