<!-- icon666.com - MILLIONS OF FREE VECTOR ICONS --><svg viewBox="0 0 64 64" xmlns="http://www.w3.org/2000/svg"><g id="Icon"><path d="m32 55.002a1.99408 1.99408 0 0 1 -1.41406-.585l-21.00294-21.00294a2.00191 2.00191 0 0 1 0-2.82812l21.00294-21.00294a2.0028 2.0028 0 0 1 2.82812 0l21.00294 21.00294a2.001 2.001 0 0 1 0 2.82812l-21.00294 21.00294a1.99408 1.99408 0 0 1 -1.41406.585zm0-44.00486-21.00293 21.00286 21.00293 21.00293 21.00293-21.00293z" fill="#000000" style="fill: rgb(0, 0, 0);"></path><path d="m60.293 29.87891-26.17191-26.17191a3.07251 3.07251 0 0 0 -4.24218 0l-26.17237 26.17191a3.00467 3.00467 0 0 0 .00046 4.24218l26.17142 26.17191a3.014 3.014 0 0 0 4.24267 0l26.17191-26.17191a3.00244 3.00244 0 0 0 0-4.24218z" fill="#f44336" style="fill: rgb(0, 0, 0);"></path><path d="m54.417 30.58594-21.00294-21.00294a2.0028 2.0028 0 0 0 -2.82812 0l-21.00294 21.00294a2.00191 2.00191 0 0 0 0 2.82812l21.00294 21.00294a2.00191 2.00191 0 0 0 2.82812 0l21.00294-21.00294a2.001 2.001 0 0 0 0-2.82812z" fill="#f5f5f5" style="fill: rgb(33, 178, 36);"></path></g></svg>