<!-- icon666.com - MILLIONS OF FREE VECTOR ICONS --><svg viewBox="0 0 512 512" xmlns="http://www.w3.org/2000/svg"><g fill="#78b9eb"><path d="m312.699219 29.5 53.101562 53.097656-84.898437 84.902344 63.597656 63.601562 84.902344-84.902343 53.097656 53.101562 29.5-199.300781zm0 0" fill="#78b9eb" style="fill: rgb(33, 178, 36);"></path><path d="m231.097656 344.5-31.796875-31.800781-31.800781-31.800781-84.902344 84.902343-53.097656-53.101562-29.5 199.300781 199.300781-29.5-53.101562-53.101562zm0 0" fill="#78b9eb" style="fill: rgb(33, 178, 36);"></path><path d="m146.199219 82.597656 53.101562-53.097656-199.300781-29.5 29.5 199.300781 53.097656-53.101562 84.902344 84.902343 63.601562-63.601562zm0 0" fill="#78b9eb" style="fill: rgb(33, 178, 36);"></path><path d="m512 512-29.5-199.300781-53.097656 53.101562-84.902344-84.902343-63.601562 63.601562 84.902343 84.898438-53.101562 53.101562zm0 0" fill="#78b9eb" style="fill: rgb(33, 178, 36);"></path></g><path d="m231.097656 344.5-84.898437 84.898438 53.101562 53.101562-199.300781 29.5 199.300781-199.300781zm0 0" fill="#43a2dd" style="fill: rgb(33, 178, 36);"></path><path d="m512 0-29.5 199.300781-53.097656-53.101562-84.902344 84.898437-31.800781-31.796875zm0 0" fill="#43a2dd" style="fill: rgb(33, 178, 36);"></path><path d="m0 0 199.300781 199.300781-31.800781 31.796875-84.902344-84.898437-53.097656 53.101562zm0 0" fill="#43a2dd" style="fill: rgb(33, 178, 36);"></path><path d="m312.699219 482.5 53.101562-53.101562-84.898437-84.898438 31.796875-31.800781 199.300781 199.300781zm0 0" fill="#43a2dd" style="fill: rgb(33, 178, 36);"></path></svg>