<svg  xmlns="http://www.w3.org/2000/svg"  viewBox="0 0 512 512"><g><path fill= 'white' d="M436,0H76C34.647,0,0,34.647,0,76v360c0,41.353,34.647,76,76,76h360c41.353,0,76-34.647,76-76V76 C512,34.647,477.353,0,436,0z M256,451c-107.238,0-195-87.274-195-195c0-107.238,87.272-195,195-195c107.238,0,195,87.272,195,195 C451,363.238,363.728,451,256,451z"></path></g><g><g><path fill= 'white' d="M406,271c-8.291,0-15-6.709-15-15c0-8.291,6.709-15,15-15h14.24c-3.105-34.243-16.663-65.497-37.522-90.507 l-10.043,10.043c-5.859,5.859-15.352,5.859-21.211,0c-5.859-5.859-5.859-15.352,0-21.211l10.043-10.043 c-25.01-20.86-56.264-34.417-90.507-37.522V106c0,8.291-6.709,15-15,15c-8.291,0-15-6.709-15-15V91.76 c-34.243,3.105-65.497,16.663-90.507,37.522l10.043,10.043c5.859,5.859,5.859,15.352,0,21.211c-5.859,5.859-15.352,5.859-21.211,0 l-10.043-10.043c-20.86,25.01-34.417,56.264-37.522,90.507H106c8.291,0,15,6.709,15,15s-6.709,15-15,15H91.76 c3.105,34.243,16.663,65.497,37.522,90.507l10.043-10.043c5.859-5.859,15.352-5.859,21.211,0s5.859,15.352,0,21.211 l-10.043,10.043c25.01,20.859,56.265,34.417,90.507,37.522V406c0-8.291,6.709-15,15-15s15,6.709,15,15v14.24 c34.243-3.105,65.497-16.663,90.507-37.522l-10.043-10.043c-5.859-5.859-5.859-15.352,0-21.211s15.352-5.859,21.211,0 l10.043,10.043c20.859-25.01,34.417-56.265,37.522-90.507H406z M271,256c0,6.064-3.647,11.543-9.258,13.857 c-5.532,2.307-12.017,1.077-16.348-3.252l-63.618-63.618c-5.859-5.859-5.859-15.352,0-21.211c5.859-5.859,15.352-5.859,21.211,0 L241,219.789V166c0-8.291,6.709-15,15-15s15,6.709,15,15V256z"></path></g></g></svg>